<?xml version="1.0" standalone="no"?>
<!DOCTYPE svg PUBLIC "-//W3C//DTD SVG 20010904//EN"
 "http://www.w3.org/TR/2001/REC-SVG-20010904/DTD/svg10.dtd">
<svg version="1.0" xmlns="http://www.w3.org/2000/svg"
 width="200.000000pt" height="200.000000pt" viewBox="0 0 200.000000 200.000000"
 preserveAspectRatio="xMidYMid meet">
<metadata>
Created by potrace 1.14, written by Peter Selinger 2001-2017
</metadata>
<g transform="translate(0.000000,200.000000) scale(0.100000,-0.100000)"
fill="#000000" stroke="none">
<path d="M10 1000 l0 -990 990 0 990 0 0 990 0 990 -990 0 -990 0 0 -990z
m1537 228 c-3 -502 -6 -592 -20 -646 -25 -94 -62 -165 -118 -227 -100 -108
-229 -155 -429 -155 -140 0 -238 22 -342 77 -77 40 -181 128 -176 149 2 7 46
65 98 128 l95 115 60 -58 c77 -74 132 -102 212 -109 113 -9 179 24 226 111 22
41 22 48 25 475 l3 432 -281 0 -280 0 0 145 0 145 466 0 466 0 -5 -582z"/>
</g>
</svg>
